<svg width="390" height="149" viewBox="0 0 390 149" fill="none" xmlns="http://www.w3.org/2000/svg">
<g filter="url(#filter0_bd_1438_153)">
<path d="M14 46C14 44.1423 14 43.2135 13.8973 42.4337C13.1884 37.0489 8.95112 32.8116 3.56631 32.1027C2.78652 32 1.85768 32 0 32V76C1.85768 76 2.78652 76 3.56631 75.8973C8.95112 75.1884 13.1884 70.9511 13.8973 65.5663C14 64.7865 14 63.8577 14 62V46Z" fill="#222222" fill-opacity="0.45"/>
</g>
<g filter="url(#filter1_bd_1438_153)">
<rect x="22" y="32" width="346" height="44" rx="12" fill="#222222" fill-opacity="0.45"/>
<path d="M44.0659 59.4089C44.4468 59.4089 44.6445 59.2625 44.7837 58.8523L45.7285 56.2668H50.0498L50.9946 58.8523C51.1338 59.2625 51.3242 59.4089 51.7051 59.4089C52.0933 59.4089 52.3423 59.1746 52.3423 58.8083C52.3423 58.6838 52.3203 58.5667 52.2617 58.4128L48.8267 49.2649C48.6582 48.8181 48.3579 48.5911 47.8892 48.5911C47.4351 48.5911 47.1274 48.8108 46.9663 49.2576L43.5312 58.4202C43.4727 58.574 43.4507 58.6912 43.4507 58.8157C43.4507 59.1819 43.6851 59.4089 44.0659 59.4089ZM46.0874 55.1536L47.8672 50.2244H47.9038L49.6836 55.1536H46.0874ZM36.2656 59.387C36.5659 59.387 36.7637 59.2332 36.8809 58.8743L37.4888 57.0798H40.3525L40.9604 58.8743C41.0776 59.2478 41.2754 59.387 41.583 59.387C41.9492 59.387 42.1982 59.1599 42.1982 58.8303C42.1982 58.6838 42.1616 58.5447 42.103 58.3909L39.8252 52.3411C39.6567 51.8943 39.3491 51.6599 38.917 51.6599C38.4922 51.6599 38.1846 51.8796 38.0161 52.3411L35.7383 58.3909C35.6797 58.53 35.6577 58.6765 35.6577 58.8303C35.6577 59.1672 35.8921 59.387 36.2656 59.387ZM37.811 56.1277L38.8364 53.0735H39.0049L40.0303 56.1277H37.811Z" fill="white" fill-opacity="0.5"/>
<path d="M65.855 58.5425C65.855 59.896 66.5522 60.6069 67.8989 60.6069H76.355C77.7153 60.6069 78.4263 59.9097 78.4263 58.5698V55.6851C78.4263 55.5483 78.5356 55.4868 78.6724 55.5962C79.0483 55.8833 79.4927 56.1157 80.0806 56.1157C81.2427 56.1157 82.145 55.1997 82.145 54.0239C82.145 52.855 81.2427 51.939 80.0806 51.939C79.4927 51.939 79.0483 52.1714 78.6724 52.4585C78.5356 52.5679 78.4263 52.5063 78.4263 52.3696V49.4302C78.4263 48.0903 77.7153 47.3931 76.355 47.3931H67.8989C66.5522 47.3931 65.855 48.104 65.855 49.4575V52.3901C65.855 52.8345 66.2036 53.1284 66.6138 53.1284C66.8394 53.1284 67.0786 53.0327 67.2905 52.8276C67.6118 52.5269 68.0083 52.144 68.8013 52.144C69.8335 52.144 70.647 52.9644 70.647 54.0103C70.647 55.0562 69.8335 55.8765 68.8013 55.8765C68.0083 55.8765 67.6118 55.4868 67.2905 55.186C67.0786 54.9878 66.8394 54.8921 66.6138 54.8921C66.2036 54.8921 65.855 55.186 65.855 55.6304V58.5425Z" fill="white" fill-opacity="0.5"/>
<path d="M139.293 60.5H145.707C146.576 60.5 147 60.0736 147 59.1407V54.2499C147 53.4103 146.65 52.9772 145.929 52.9039V51.2248C145.929 48.7127 144.265 47.5 142.5 47.5C140.735 47.5 139.071 48.7127 139.071 51.2248V52.9372C138.411 53.0372 138 53.4636 138 54.2499V59.1407C138 60.0736 138.424 60.5 139.293 60.5ZM140.156 51.0848C140.156 49.4124 141.24 48.5261 142.5 48.5261C143.76 48.5261 144.844 49.4124 144.844 51.0848V52.8972L140.156 52.9039V51.0848Z" fill="white" fill-opacity="0.5"/>
<path d="M154.997 60.6577C152.44 60.6577 150.896 58.8647 150.896 56.0591V56.0508C150.896 53.2866 152.474 51.394 154.906 51.394C157.338 51.394 158.815 53.2036 158.815 55.8765V56.4409H152.374C152.416 58.292 153.437 59.3711 155.03 59.3711C156.242 59.3711 156.989 58.7983 157.23 58.2588L157.263 58.1841H158.708L158.691 58.2505C158.384 59.4624 157.105 60.6577 154.997 60.6577ZM154.897 52.6807C153.569 52.6807 152.557 53.5854 152.399 55.2871H157.346C157.197 53.519 156.217 52.6807 154.897 52.6807ZM159.603 60.5L162.666 56.0259L159.57 51.5518H161.271L163.396 54.8804H163.529L165.629 51.5518H167.248L164.21 55.9678L167.289 60.5H165.596L163.479 57.1216H163.346L161.221 60.5H159.603ZM171.281 60.6577C169.579 60.6577 168.292 59.6284 168.292 58.0015V57.9849C168.292 56.3911 169.471 55.4697 171.555 55.3452L174.12 55.1875V54.374C174.12 53.27 173.447 52.6724 172.111 52.6724C171.04 52.6724 170.334 53.0708 170.102 53.7681L170.094 53.793H168.649L168.658 53.7432C168.89 52.3403 170.251 51.394 172.161 51.394C174.344 51.394 175.564 52.5146 175.564 54.374V60.5H174.12V59.1802H173.987C173.422 60.1348 172.484 60.6577 171.281 60.6577ZM169.77 57.9683C169.77 58.873 170.542 59.4043 171.58 59.4043C173.049 59.4043 174.12 58.4414 174.12 57.1631V56.3496L171.729 56.499C170.368 56.582 169.77 57.0635 169.77 57.9517V57.9683ZM177.796 60.5V51.5518H179.24V52.9131H179.373C179.771 51.9502 180.618 51.394 181.788 51.394C183 51.394 183.847 52.0332 184.262 52.9629H184.395C184.876 52.0166 185.897 51.394 187.134 51.394C188.96 51.394 189.981 52.4399 189.981 54.3159V60.5H188.537V54.6479C188.537 53.3281 187.931 52.6724 186.669 52.6724C185.424 52.6724 184.602 53.6104 184.602 54.7476V60.5H183.158V54.4238C183.158 53.3613 182.427 52.6724 181.298 52.6724C180.128 52.6724 179.24 53.6934 179.24 54.9551V60.5H177.796ZM192.18 63.4883V51.5518H193.624V52.9795H193.757C194.305 51.9834 195.301 51.394 196.546 51.394C198.812 51.394 200.298 53.2285 200.298 56.0176V56.0342C200.298 58.8398 198.82 60.6577 196.546 60.6577C195.317 60.6577 194.246 60.0435 193.757 59.0889H193.624V63.4883H192.18ZM196.214 59.3794C197.849 59.3794 198.82 58.1177 198.82 56.0342V56.0176C198.82 53.9341 197.849 52.6724 196.214 52.6724C194.587 52.6724 193.591 53.9507 193.591 56.0176V56.0342C193.591 58.1011 194.587 59.3794 196.214 59.3794ZM202.231 60.5V47.999H203.675V60.5H202.231ZM209.692 60.6577C207.135 60.6577 205.591 58.8647 205.591 56.0591V56.0508C205.591 53.2866 207.168 51.394 209.6 51.394C212.032 51.394 213.51 53.2036 213.51 55.8765V56.4409H207.069C207.11 58.292 208.131 59.3711 209.725 59.3711C210.937 59.3711 211.684 58.7983 211.925 58.2588L211.958 58.1841H213.402L213.385 58.2505C213.078 59.4624 211.8 60.6577 209.692 60.6577ZM209.592 52.6807C208.264 52.6807 207.251 53.5854 207.094 55.2871H212.041C211.891 53.519 210.912 52.6807 209.592 52.6807ZM216.522 60.583C215.933 60.583 215.443 60.0933 215.443 59.5039C215.443 58.9062 215.933 58.4248 216.522 58.4248C217.12 58.4248 217.601 58.9062 217.601 59.5039C217.601 60.0933 217.12 60.583 216.522 60.583ZM223.311 60.6577C220.804 60.6577 219.202 58.8398 219.202 56.001V55.9844C219.202 53.2036 220.796 51.394 223.302 51.394C225.477 51.394 226.78 52.6475 227.046 54.2412L227.054 54.291H225.618L225.61 54.2661C225.386 53.3862 224.589 52.6724 223.302 52.6724C221.692 52.6724 220.679 53.9673 220.679 55.9844V56.001C220.679 58.0596 221.709 59.3794 223.302 59.3794C224.506 59.3794 225.27 58.8481 225.602 57.8521L225.618 57.8022L227.046 57.7939L227.029 57.8853C226.664 59.5039 225.461 60.6577 223.311 60.6577ZM232.432 60.6577C229.884 60.6577 228.307 58.8979 228.307 56.0342V56.0176C228.307 53.1455 229.884 51.394 232.432 51.394C234.98 51.394 236.557 53.1455 236.557 56.0176V56.0342C236.557 58.8979 234.98 60.6577 232.432 60.6577ZM232.432 59.3794C234.125 59.3794 235.08 58.1426 235.08 56.0342V56.0176C235.08 53.9009 234.125 52.6724 232.432 52.6724C230.739 52.6724 229.784 53.9009 229.784 56.0176V56.0342C229.784 58.1426 230.739 59.3794 232.432 59.3794ZM238.391 60.5V51.5518H239.835V52.9131H239.968C240.366 51.9502 241.213 51.394 242.383 51.394C243.595 51.394 244.442 52.0332 244.857 52.9629H244.99C245.471 52.0166 246.492 51.394 247.729 51.394C249.555 51.394 250.576 52.4399 250.576 54.3159V60.5H249.132V54.6479C249.132 53.3281 248.526 52.6724 247.264 52.6724C246.019 52.6724 245.197 53.6104 245.197 54.7476V60.5H243.753V54.4238C243.753 53.3613 243.023 52.6724 241.894 52.6724C240.723 52.6724 239.835 53.6934 239.835 54.9551V60.5H238.391Z" fill="white" fill-opacity="0.8"/>
<path d="M338 55.69C338 60.023 341.345 63.5 345.504 63.5C349.664 63.5 353 60.023 353 55.69C353 55.2664 352.711 54.9575 352.295 54.9575C351.896 54.9575 351.633 55.2664 351.633 55.69C351.633 59.2376 348.908 62.0792 345.504 62.0792C342.1 62.0792 339.367 59.2376 339.367 55.69C339.367 52.1512 342.1 49.3184 345.504 49.3184C346.149 49.3184 346.752 49.3713 347.253 49.4949L344.715 52.1071C344.587 52.2483 344.52 52.4248 344.52 52.6101C344.52 53.016 344.808 53.3161 345.19 53.3161C345.402 53.3161 345.564 53.2455 345.683 53.1131L349.18 49.4596C349.333 49.3096 349.392 49.1331 349.392 48.9301C349.392 48.7359 349.316 48.5418 349.18 48.4006L345.683 44.7118C345.564 44.5706 345.394 44.5 345.19 44.5C344.808 44.5 344.52 44.8177 344.52 45.2236C344.52 45.409 344.587 45.5855 344.706 45.7267L346.964 48.0476C346.523 47.9594 346.022 47.8976 345.504 47.8976C341.345 47.8976 338 51.3658 338 55.69Z" fill="white"/>
</g>
<path d="M23.1836 101.597C23.1836 101.853 23.2759 102.079 23.4707 102.273L31.6021 110.22C31.7764 110.405 32.002 110.497 32.2686 110.497C32.8018 110.497 33.2119 110.097 33.2119 109.564C33.2119 109.297 33.0991 109.072 32.9351 108.897L25.4702 101.597L32.9351 94.2959C33.0991 94.1216 33.2119 93.8857 33.2119 93.6294C33.2119 93.0962 32.8018 92.6963 32.2686 92.6963C32.002 92.6963 31.7764 92.7886 31.6021 92.9629L23.4707 100.92C23.2759 101.104 23.1836 101.34 23.1836 101.597Z" fill="#0A84FF"/>
<path d="M118.577 101.597C118.577 101.34 118.474 101.104 118.279 100.92L110.158 92.9629C109.974 92.7886 109.748 92.6963 109.481 92.6963C108.958 92.6963 108.548 93.0962 108.548 93.6294C108.548 93.8857 108.651 94.1216 108.815 94.2959L116.28 101.597L108.815 108.897C108.651 109.072 108.548 109.297 108.548 109.564C108.548 110.097 108.958 110.497 109.481 110.497C109.748 110.497 109.974 110.405 110.158 110.22L118.279 102.273C118.474 102.079 118.577 101.853 118.577 101.597Z" fill="#0A84FF"/>
<path d="M194.99 104.386C195.431 104.386 195.81 104.017 195.81 103.586V93.0552L195.749 91.5171L196.436 92.2451L197.994 93.9062C198.138 94.0703 198.343 94.1523 198.548 94.1523C198.968 94.1523 199.296 93.8447 199.296 93.4243C199.296 93.209 199.204 93.0449 199.05 92.8911L195.584 89.5483C195.379 89.3433 195.205 89.2715 194.99 89.2715C194.785 89.2715 194.61 89.3433 194.395 89.5483L190.929 92.8911C190.775 93.0449 190.693 93.209 190.693 93.4243C190.693 93.8447 191.001 94.1523 191.432 94.1523C191.626 94.1523 191.852 94.0703 191.996 93.9062L193.544 92.2451L194.241 91.5171L194.18 93.0552V103.586C194.18 104.017 194.549 104.386 194.99 104.386ZM189.114 112.415H200.875C203.019 112.415 204.095 111.348 204.095 109.236V99.0024C204.095 96.8901 203.019 95.8237 200.875 95.8237H198.015V97.4746H200.845C201.86 97.4746 202.444 98.0283 202.444 99.0947V109.144C202.444 110.21 201.86 110.764 200.845 110.764H189.135C188.109 110.764 187.545 110.21 187.545 109.144V99.0947C187.545 98.0283 188.109 97.4746 189.135 97.4746H191.975V95.8237H189.114C186.971 95.8237 185.895 96.8901 185.895 99.0024V109.236C185.895 111.348 186.971 112.415 189.114 112.415Z" fill="#0A84FF"/>
<path d="M266.358 109.41C266.358 110.251 266.912 110.579 267.517 110.579C267.865 110.579 268.163 110.374 268.552 110.138C269.68 109.369 271.075 108.897 272.5 108.908C273.977 108.918 275.443 109.461 276.591 110.569C277.042 110.979 277.371 111.112 277.75 111.112C278.119 111.112 278.458 110.979 278.898 110.569C280.047 109.472 281.513 108.918 283 108.908C284.425 108.897 285.81 109.369 286.938 110.138C287.327 110.374 287.625 110.579 287.983 110.579C288.578 110.579 289.132 110.251 289.132 109.41V95.4956C289.132 95.3213 289.122 95.1777 289.009 95.0034C288.096 93.4141 285.779 92.0708 282.959 92.0708C280.724 92.0708 278.786 92.9629 277.75 94.2241C276.714 92.9629 274.766 92.0708 272.541 92.0708C269.711 92.0708 267.394 93.4141 266.481 95.0034C266.378 95.1777 266.358 95.3213 266.358 95.4956V109.41ZM268.009 108.539V95.7314C268.839 94.5317 270.644 93.7217 272.541 93.7217C274.489 93.7217 276.191 94.542 276.919 95.793V108.713C275.874 107.882 274.243 107.257 272.541 107.257C270.757 107.257 269.096 107.759 268.009 108.539ZM278.57 108.713V95.793C279.298 94.542 281.011 93.7217 282.959 93.7217C284.846 93.7217 286.65 94.5317 287.481 95.7314V108.539C286.394 107.759 284.733 107.257 282.959 107.257C281.247 107.257 279.616 107.882 278.57 108.713Z" fill="#0A84FF"/>
<path d="M352.871 107.605H354.625V109.174C354.625 111.287 355.691 112.353 357.844 112.353H368.139C370.272 112.353 371.349 111.287 371.349 109.174V98.7974C371.349 96.6851 370.272 95.6187 368.139 95.6187H366.375V94.0498C366.375 91.9375 365.299 90.8711 363.166 90.8711H352.871C350.718 90.8711 349.651 91.9375 349.651 94.0498V104.427C349.651 106.539 350.718 107.605 352.871 107.605ZM352.892 105.955C351.866 105.955 351.302 105.401 351.302 104.334V94.1421C351.302 93.0757 351.866 92.522 352.892 92.522H363.135C364.15 92.522 364.725 93.0757 364.725 94.1421V95.6187H357.844C355.691 95.6187 354.625 96.6748 354.625 98.7974V105.955H352.892ZM357.865 110.702C356.85 110.702 356.275 110.148 356.275 109.082V98.8896C356.275 97.8232 356.85 97.2695 357.865 97.2695H368.108C369.124 97.2695 369.698 97.8232 369.698 98.8896V109.082C369.698 110.148 369.124 110.702 368.108 110.702H357.865Z" fill="#0A84FF"/>
<rect x="127.5" y="144" width="135" height="5" rx="2.5" fill="white"/>
<defs>
<filter id="filter0_bd_1438_153" x="-48" y="-16" width="110" height="140" filterUnits="userSpaceOnUse" color-interpolation-filters="sRGB">
<feFlood flood-opacity="0" result="BackgroundImageFix"/>
<feGaussianBlur in="BackgroundImageFix" stdDeviation="24"/>
<feComposite in2="SourceAlpha" operator="in" result="effect1_backgroundBlur_1438_153"/>
<feColorMatrix in="SourceAlpha" type="matrix" values="0 0 0 0 0 0 0 0 0 0 0 0 0 0 0 0 0 0 127 0" result="hardAlpha"/>
<feOffset/>
<feGaussianBlur stdDeviation="16"/>
<feColorMatrix type="matrix" values="0 0 0 0 0 0 0 0 0 0 0 0 0 0 0 0 0 0 0.19 0"/>
<feBlend mode="normal" in2="effect1_backgroundBlur_1438_153" result="effect2_dropShadow_1438_153"/>
<feBlend mode="normal" in="SourceGraphic" in2="effect2_dropShadow_1438_153" result="shape"/>
</filter>
<filter id="filter1_bd_1438_153" x="-26" y="-16" width="442" height="140" filterUnits="userSpaceOnUse" color-interpolation-filters="sRGB">
<feFlood flood-opacity="0" result="BackgroundImageFix"/>
<feGaussianBlur in="BackgroundImageFix" stdDeviation="24"/>
<feComposite in2="SourceAlpha" operator="in" result="effect1_backgroundBlur_1438_153"/>
<feColorMatrix in="SourceAlpha" type="matrix" values="0 0 0 0 0 0 0 0 0 0 0 0 0 0 0 0 0 0 127 0" result="hardAlpha"/>
<feOffset/>
<feGaussianBlur stdDeviation="16"/>
<feColorMatrix type="matrix" values="0 0 0 0 0 0 0 0 0 0 0 0 0 0 0 0 0 0 0.19 0"/>
<feBlend mode="normal" in2="effect1_backgroundBlur_1438_153" result="effect2_dropShadow_1438_153"/>
<feBlend mode="normal" in="SourceGraphic" in2="effect2_dropShadow_1438_153" result="shape"/>
</filter>
</defs>
</svg>
