<svg width="67" height="12" viewBox="0 0 67 12" fill="none" xmlns="http://www.w3.org/2000/svg">
<path fill-rule="evenodd" clip-rule="evenodd" d="M15.9999 0.666626H14.9999C14.4477 0.666626 13.9999 1.11434 13.9999 1.66663V10.3333C13.9999 10.8856 14.4477 11.3333 14.9999 11.3333H15.9999C16.5522 11.3333 16.9999 10.8856 16.9999 10.3333V1.66663C16.9999 1.11434 16.5522 0.666626 15.9999 0.666626ZM10.3332 2.99993H11.3332C11.8855 2.99993 12.3332 3.44764 12.3332 3.99993V10.3333C12.3332 10.8855 11.8855 11.3333 11.3332 11.3333H10.3332C9.78093 11.3333 9.33321 10.8855 9.33321 10.3333V3.99993C9.33321 3.44764 9.78093 2.99993 10.3332 2.99993ZM6.66673 5.33342H5.66673C5.11444 5.33342 4.66673 5.78113 4.66673 6.33342V10.3334C4.66673 10.8857 5.11444 11.3334 5.66673 11.3334H6.66673C7.21901 11.3334 7.66673 10.8857 7.66673 10.3334V6.33342C7.66673 5.78113 7.21901 5.33342 6.66673 5.33342ZM2 7.33343H1C0.447715 7.33343 0 7.78114 0 8.33343V10.3334C0 10.8857 0.447715 11.3334 1 11.3334H2C2.55228 11.3334 3 10.8857 3 10.3334V8.33343C3 7.78114 2.55228 7.33343 2 7.33343Z" fill="black"/>
<path fill-rule="evenodd" clip-rule="evenodd" d="M29.6366 2.7946C31.8525 2.7947 33.9837 3.64613 35.5896 5.17293C35.7105 5.29081 35.9038 5.28932 36.0229 5.1696L37.1789 4.00293C37.2392 3.94221 37.2729 3.85996 37.2724 3.77438C37.2719 3.6888 37.2373 3.60695 37.1763 3.54693C32.9612 -0.492614 26.3114 -0.492614 22.0963 3.54693C22.0352 3.6069 22.0006 3.68873 22 3.77431C21.9994 3.85989 22.033 3.94217 22.0933 4.00293L23.2496 5.1696C23.3686 5.2895 23.5621 5.29099 23.6829 5.17293C25.2891 3.64603 27.4205 2.79459 29.6366 2.7946ZM29.6366 6.59016C30.8541 6.59009 32.0282 7.04262 32.9306 7.85983C33.0527 7.97581 33.245 7.97329 33.364 7.85416L34.5186 6.68749C34.5794 6.6263 34.6132 6.54328 34.6123 6.45702C34.6114 6.37075 34.576 6.28844 34.514 6.22849C31.7658 3.67211 27.5098 3.67211 24.7616 6.22849C24.6996 6.28844 24.6641 6.37079 24.6633 6.45709C24.6625 6.54338 24.6964 6.62639 24.7573 6.68749L25.9116 7.85416C26.0306 7.97329 26.2229 7.97581 26.345 7.85983C27.2468 7.04316 28.42 6.59067 29.6366 6.59016ZM31.9497 9.14396C31.9515 9.23046 31.9175 9.31386 31.8557 9.37447L29.8584 11.3901C29.7999 11.4494 29.72 11.4827 29.6367 11.4827C29.5535 11.4827 29.4736 11.4494 29.4151 11.3901L27.4174 9.37447C27.3557 9.31382 27.3218 9.23039 27.3236 9.14388C27.3254 9.05738 27.3629 8.97546 27.4271 8.91747C28.7026 7.83859 30.5708 7.83859 31.8464 8.91747C31.9106 8.97551 31.948 9.05745 31.9497 9.14396Z" fill="black"/>
<path opacity="0.4" fill-rule="evenodd" clip-rule="evenodd" d="M44.9391 1.33334H61.6058C62.5263 1.33334 63.2725 2.07953 63.2725 3.00001V9.00001C63.2725 9.92049 62.5263 10.6667 61.6058 10.6667H44.9391C44.0187 10.6667 43.2725 9.92049 43.2725 9.00001V3.00001C43.2725 2.07953 44.0187 1.33334 44.9391 1.33334ZM42.2725 3.00001C42.2725 1.52725 43.4664 0.333344 44.9391 0.333344H61.6058C63.0786 0.333344 64.2725 1.52725 64.2725 3.00001V9.00001C64.2725 10.4728 63.0786 11.6667 61.6058 11.6667H44.9391C43.4664 11.6667 42.2725 10.4728 42.2725 9.00001V3.00001ZM66.6004 6.00006C66.6004 6.87319 66.0771 7.66128 65.2724 8.00006V4.00006C66.0771 4.33884 66.6004 5.12693 66.6004 6.00006Z" fill="black"/>
<rect x="44.2725" y="2.33334" width="18" height="7.33333" rx="1.33333" fill="black"/>
</svg>
